<?xml version="1.0" standalone="no"?>
<!DOCTYPE svg PUBLIC "-//W3C//DTD SVG 20010904//EN"
 "http://www.w3.org/TR/2001/REC-SVG-20010904/DTD/svg10.dtd">
<svg version="1.0" xmlns="http://www.w3.org/2000/svg"
 width="512.000000pt" height="512.000000pt" viewBox="0 0 512.000000 512.000000"
 preserveAspectRatio="xMidYMid meet">

<g transform="translate(0.000000,512.000000) scale(0.100000,-0.100000)"
fill="#000000" stroke="none">
<path d="M2399 5110 c-95 -6 -144 -15 -205 -35 -133 -46 -283 -130 -384 -214
l-35 -29 30 -7 c17 -3 62 -15 102 -25 90 -25 96 -25 53 2 -20 12 -30 23 -22
25 6 3 12 12 13 21 0 11 2 12 6 5 2 -7 9 -13 14 -13 6 0 9 6 8 13 -3 27 2 37
20 37 10 0 29 11 42 25 13 13 30 25 37 25 6 0 12 5 12 10 0 6 8 10 18 10 18 1
109 31 129 43 6 4 37 11 70 17 32 5 85 14 118 20 64 13 298 7 415 -9 113 -15
323 -79 372 -113 14 -10 33 -18 41 -18 8 0 26 -9 40 -20 14 -11 32 -20 40 -20
9 0 17 -3 19 -7 2 -5 29 -25 61 -46 31 -20 57 -42 57 -47 0 -6 10 -15 23 -21
12 -6 36 -30 52 -55 17 -24 33 -44 36 -44 4 0 19 -19 35 -42 16 -24 39 -54 52
-68 12 -14 25 -34 28 -45 9 -32 38 -85 46 -85 5 0 8 -7 8 -16 0 -9 9 -27 19
-40 11 -14 17 -33 14 -44 -3 -11 0 -20 6 -20 6 0 11 -11 11 -25 0 -14 6 -36
14 -48 9 -15 16 -71 20 -172 7 -148 6 -151 -20 -205 -14 -30 -28 -65 -31 -79
-2 -14 -13 -31 -24 -39 -13 -9 -19 -22 -16 -33 3 -13 -5 -24 -26 -38 -29 -19
-33 -19 -50 -3 -17 15 -18 15 -7 -12 6 -16 9 -30 7 -33 -8 -7 -57 77 -57 97 0
36 -38 106 -75 139 -50 44 -128 81 -172 82 -38 1 -139 -33 -158 -53 -7 -7 -4
-7 11 0 28 14 150 24 198 16 l40 -6 -30 -15 c-74 -38 -124 -110 -124 -177 0
-46 -14 -53 -45 -22 -18 18 -25 21 -25 10 0 -46 85 -148 146 -176 32 -15 31
-36 -3 -49 -22 -8 -24 -12 -13 -19 11 -7 6 -10 -19 -10 -43 0 -115 52 -169
122 -56 74 -73 111 -83 185 -13 94 16 143 116 189 28 12 43 23 35 23 -9 1 -65
51 -125 112 -107 108 -258 244 -360 323 -118 93 -84 58 110 -112 117 -102 239
-223 292 -290 l26 -33 -55 -53 c-63 -60 -83 -106 -76 -177 3 -27 4 -49 2 -49
-2 0 -15 12 -29 26 -49 49 -150 134 -159 134 -5 0 -52 31 -105 68 -160 114
-377 246 -611 372 -150 81 -172 94 -165 102 8 8 -226 102 -380 153 -104 34
-162 47 -237 54 -54 4 -101 11 -104 14 -3 3 16 8 43 11 26 4 62 11 78 17 58
20 282 22 395 4 58 -9 114 -18 125 -20 11 -2 38 -6 60 -10 69 -13 27 11 -88
49 -59 20 -114 36 -122 36 -18 0 -20 40 -2 40 16 1 69 78 62 91 -4 5 -18 9
-33 9 -20 0 -41 -15 -84 -63 l-56 -63 59 -13 c105 -21 67 -31 -125 -31 -140 0
-206 -4 -277 -19 -52 -10 -130 -22 -174 -25 -119 -10 -145 -20 -214 -82 -61
-56 -62 -57 -56 -98 15 -91 59 -198 135 -326 l21 -36 -60 -88 c-59 -87 -98
-174 -88 -199 3 -6 6 -3 6 8 2 46 123 245 149 245 4 0 12 -12 18 -27 9 -27 10
-26 47 46 20 41 35 76 33 78 -2 3 -20 -10 -40 -28 -60 -53 -51 -26 18 53 66
76 183 184 191 176 2 -2 -21 -40 -52 -84 -31 -43 -84 -124 -119 -179 -34 -55
-66 -99 -72 -98 -11 2 -51 -83 -83 -174 -29 -83 -36 -182 -16 -223 15 -30 15
-34 -4 -72 -15 -29 -18 -43 -9 -48 17 -10 -80 -122 -143 -163 -28 -19 -99 -65
-157 -103 -149 -97 -339 -287 -376 -376 -45 -109 -43 -241 6 -300 17 -20 17
-18 -3 22 -17 35 -22 63 -22 125 0 71 4 88 34 150 47 94 117 164 201 197 36
14 68 24 71 23 3 -2 -14 -44 -38 -92 -84 -171 -121 -328 -109 -460 9 -102 29
-157 70 -203 20 -22 36 -48 36 -58 0 -24 43 -114 62 -130 10 -8 7 4 -8 35 -29
56 -31 78 -6 68 9 -5 31 -10 47 -12 24 -4 38 -16 60 -51 16 -26 47 -66 68 -88
23 -26 44 -63 53 -95 25 -82 97 -184 134 -189 31 -5 44 3 15 9 -32 7 -68 60
-78 118 l-6 32 41 -15 c59 -20 93 -18 125 11 l28 25 -33 -11 c-43 -15 -99 1
-131 35 l-24 25 23 71 c38 119 111 215 214 282 33 21 62 38 66 38 3 0 -5 -33
-18 -72 -47 -137 -41 -323 14 -403 13 -20 22 -41 19 -46 -12 -18 -68 -41 -88
-35 -14 3 -17 2 -9 -6 11 -11 77 -13 123 -3 21 5 31 2 35 -8 5 -14 27 -31 122
-91 59 -38 112 -40 235 -11 123 29 258 91 300 139 l28 31 -3 -90 c-4 -108 12
-120 52 -38 14 29 29 55 32 59 7 6 58 -87 58 -105 0 -5 -8 -12 -18 -15 -10 -4
-45 -22 -77 -41 -31 -19 -61 -35 -66 -35 -5 0 -20 23 -34 50 -20 39 -31 50
-50 50 -13 0 -26 -4 -29 -9 -3 -4 -33 -18 -66 -30 -77 -28 -118 -64 -168 -149
-22 -37 -49 -76 -61 -86 -12 -11 -21 -24 -21 -29 0 -5 -31 -40 -70 -77 -87
-84 -111 -133 -118 -249 -4 -74 -9 -91 -32 -121 -68 -88 -194 -313 -214 -386
-5 -18 9 -31 91 -88 54 -36 103 -66 108 -66 6 0 44 62 84 138 107 200 145 264
149 253 6 -17 -44 -134 -120 -284 -39 -76 -68 -140 -66 -143 11 -10 281 -144
292 -144 7 0 36 57 66 128 174 412 243 557 269 572 12 6 21 8 21 5 0 -3 -27
-63 -59 -133 -56 -121 -236 -551 -243 -581 -7 -32 343 -135 587 -173 185 -28
521 -30 700 -4 582 84 1100 344 1493 749 l83 86 -37 68 c-20 37 -42 74 -47 80
-6 9 -5 18 2 27 8 10 12 54 10 133 l-1 118 52 90 c101 172 189 390 212 522 16
93 -4 149 -65 192 -69 47 -384 198 -545 261 -46 18 -62 36 -62 71 0 36 9 37
108 3 l77 -25 22 26 c13 14 23 34 23 44 0 27 -24 90 -76 200 l-46 98 40 109
c81 220 108 339 121 521 35 498 -148 957 -525 1323 -111 107 -316 261 -347
259 -7 0 -4 -6 7 -12 201 -129 325 -233 448 -373 182 -208 321 -486 380 -755
19 -89 22 -135 22 -319 1 -256 -15 -349 -94 -568 -28 -75 -50 -142 -50 -149 0
-23 -17 -14 -29 15 -10 25 -7 39 25 113 144 334 170 638 84 974 -76 294 -210
524 -440 755 -154 156 -267 240 -447 333 -165 85 -567 137 -904 117z m81
-1129 c-13 -25 -84 -83 -130 -107 -19 -10 -64 -23 -100 -30 l-65 -12 56 -1
c79 -1 142 21 244 84 49 31 94 53 102 51 19 -8 32 -46 59 -181 43 -212 81
-356 110 -422 20 -43 18 -66 -10 -121 -34 -67 -48 -78 -86 -62 -35 14 -31 30
8 30 15 0 34 5 42 11 12 8 9 9 -12 5 -26 -6 -108 19 -108 32 0 3 12 19 28 35
l27 29 -32 -16 c-42 -21 -75 -20 -121 3 -42 21 -146 41 -213 41 -56 0 -154
-25 -182 -46 -20 -15 -20 -16 -2 -9 11 4 36 9 55 12 l35 5 -36 -25 c-36 -26
-75 -75 -66 -84 3 -2 22 7 44 21 49 32 203 72 203 52 0 -2 -14 -30 -30 -62
-26 -49 -30 -67 -28 -118 2 -32 8 -61 14 -63 7 -2 10 5 7 20 -5 24 10 43 37
49 8 2 20 10 27 18 9 13 12 10 18 -15 10 -49 20 -60 61 -65 21 -3 48 -10 58
-16 19 -11 19 -13 3 -38 -9 -14 -32 -30 -50 -35 l-32 -9 33 -1 c28 -1 43 8 83
49 27 27 51 62 55 77 10 47 12 49 13 15 1 -51 -20 -81 -121 -167 -121 -103
-151 -136 -205 -218 -40 -63 -46 -68 -71 -62 -67 15 -122 84 -122 152 0 24 5
53 10 64 6 10 8 19 5 19 -11 0 -35 -68 -35 -97 0 -78 56 -162 122 -185 20 -7
27 -15 24 -25 -15 -39 -28 -165 -23 -225 3 -36 16 -89 28 -117 13 -32 19 -61
16 -79 -8 -41 17 -150 49 -213 81 -162 220 -278 297 -250 20 8 19 9 -10 15
-38 9 -76 51 -94 103 -27 82 10 304 64 384 22 33 200 159 244 173 31 10 36
-16 23 -116 -7 -60 -7 -99 1 -141 7 -32 9 -60 6 -63 -2 -3 -22 2 -43 10 l-39
16 28 -25 c15 -14 35 -25 43 -25 8 0 14 -4 14 -9 0 -18 -53 -51 -81 -51 -16 0
-29 -4 -29 -9 0 -15 36 -23 96 -20 l56 3 24 -50 c18 -37 21 -51 12 -57 -7 -4
-53 -30 -103 -58 -153 -86 -365 -232 -475 -328 -58 -49 -107 -90 -110 -91 -3
0 -23 55 -45 122 -22 68 -51 145 -63 173 -13 27 -39 91 -57 142 -48 131 -84
200 -123 234 l-34 30 -207 -3 c-265 -4 -257 -8 -321 148 -25 61 -80 171 -122
245 -140 243 -151 313 -79 534 58 178 71 237 71 330 0 92 14 130 24 69 12 -69
22 -72 40 -12 18 63 40 87 87 94 55 8 64 -6 37 -57 -16 -31 -24 -66 -26 -116
-4 -74 3 -89 26 -53 7 11 21 20 31 20 10 0 21 -9 24 -20 4 -14 14 -20 32 -20
23 0 26 -4 22 -21 -4 -16 -3 -18 8 -9 7 6 19 33 25 60 16 65 -1 144 -43 207
-26 39 -46 55 -110 86 l-78 38 -23 -28 c-20 -24 -26 -25 -40 -14 -45 38 23
281 79 281 7 0 31 -17 54 -37 37 -35 43 -45 56 -117 16 -87 29 -116 19 -43 -9
66 12 61 26 -6 11 -55 62 -162 77 -162 4 -1 27 -11 50 -23 22 -12 60 -24 82
-28 l41 -7 -19 44 c-44 101 -38 150 33 263 l31 49 3 -54 c5 -111 22 -183 60
-246 20 -35 40 -63 44 -63 3 0 2 17 -4 37 -14 50 -4 205 17 272 9 29 27 63 40
75 38 35 494 245 533 246 9 0 10 -5 2 -19z m-1031 -73 c-4 -26 -9 -64 -11 -83
-1 -19 -4 -35 -5 -35 -6 0 -83 53 -83 56 0 2 16 26 35 53 29 40 57 62 72 57 1
-1 -3 -22 -8 -48z m1992 -115 c4 -52 -10 -69 -42 -53 -35 18 -35 18 -9 45 27
29 50 32 51 8z m-2201 -333 c0 -5 -4 -10 -10 -10 -5 0 -10 5 -10 10 0 6 5 10
10 10 6 0 10 -4 10 -10z m2360 -100 c0 -5 -4 -10 -10 -10 -5 0 -10 5 -10 10 0
6 5 10 10 10 6 0 10 -4 10 -10z m-2086 -36 c9 -25 7 -33 -12 -43 -29 -16 -44
0 -29 32 14 30 32 35 41 11z m960 -117 c21 -15 15 -51 -9 -61 -45 -17 -87 40
-47 63 23 14 35 13 56 -2z m-1548 -53 c-4 -9 -9 -15 -11 -12 -3 3 -3 13 1 22
4 9 9 15 11 12 3 -3 3 -13 -1 -22z m-85 -196 c-10 -25 -31 -88 -46 -142 -15
-53 -30 -94 -33 -92 -6 6 22 110 48 181 34 93 41 108 46 103 2 -3 -4 -25 -15
-50z m2602 -57 c13 -5 31 -24 40 -43 36 -76 40 -323 6 -364 -40 -48 -316 -152
-429 -161 -83 -7 -111 3 -164 58 -22 22 -45 38 -52 35 -7 -3 -66 -40 -131 -84
-170 -113 -170 -113 -89 -22 109 121 202 201 282 241 102 51 147 94 204 197
26 47 52 82 60 82 9 0 25 7 38 15 23 17 152 54 189 54 12 1 33 -3 46 -8z
m-988 -72 c-24 -33 -59 -89 -76 -125 -31 -62 -33 -64 -70 -64 -22 0 -39 3 -39
6 0 31 194 244 222 244 5 0 -12 -27 -37 -61z m-1919 -61 c-55 -194 -58 -217
-54 -369 4 -162 0 -170 -45 -85 -18 33 -22 58 -22 131 0 107 14 163 68 268 37
73 67 104 53 55z m2508 -50 c-29 -58 -133 -152 -150 -136 -5 6 146 168 157
168 5 0 2 -15 -7 -32z m-2287 -45 c-3 -10 -5 -4 -5 12 0 17 2 24 5 18 2 -7 2
-21 0 -30z m-10 -80 c-3 -10 -5 -2 -5 17 0 19 2 27 5 18 2 -10 2 -26 0 -35z
m1571 -57 c-11 -35 -70 -224 -75 -236 -9 -24 -31 59 -32 121 -1 54 12 112 31
135 11 15 80 -4 76 -20z m1626 -66 c21 -8 26 -16 26 -45 0 -35 -6 -41 -26 -27
-16 10 -44 68 -37 76 8 8 7 8 37 -4z m-3369 -173 c15 -53 26 -100 23 -102 -3
-3 -21 2 -41 10 -41 17 -42 19 -30 138 3 37 9 64 13 60 3 -4 19 -52 35 -106z
m615 -145 c0 -20 7 -73 15 -117 17 -86 13 -143 -11 -152 -39 -15 -72 110 -54
208 19 105 50 143 50 61z m334 -215 c0 -37 3 -67 8 -67 13 0 9 -49 -7 -79 -35
-69 -113 -104 -186 -82 -43 13 -109 65 -109 87 0 7 29 27 65 44 45 22 87 53
133 100 37 38 74 68 82 67 12 -2 15 -17 14 -70z m509 -740 c-136 -136 -197
-207 -272 -314 -24 -35 -45 -63 -47 -63 -1 0 6 21 15 48 19 51 50 112 51 99 0
-16 142 138 156 171 10 21 12 48 8 77 -5 39 -3 45 13 45 18 0 170 54 181 64 3
3 10 6 16 6 6 0 -48 -60 -121 -133z"/>
<path d="M2089 3617 c-29 -4 -58 -12 -63 -17 -5 -5 0 -7 14 -3 15 4 21 2 16
-5 -12 -21 78 -24 230 -8 204 22 272 21 335 -4 28 -12 53 -19 56 -17 8 9 -95
45 -147 53 -74 10 -374 11 -441 1z"/>
<path d="M2155 3423 c-11 -3 -24 -10 -30 -15 -7 -8 -6 -9 3 -3 8 4 46 11 85
15 69 7 69 7 17 7 -30 1 -64 -1 -75 -4z"/>
<path d="M1270 3190 c0 -5 5 -10 10 -10 6 0 10 5 10 10 0 6 -4 10 -10 10 -5 0
-10 -4 -10 -10z"/>
<path d="M1290 3150 c0 -5 7 -10 16 -10 8 0 12 5 9 10 -3 6 -10 10 -16 10 -5
0 -9 -4 -9 -10z"/>
<path d="M1435 3059 c-4 -6 -5 -12 -2 -15 2 -3 7 2 10 11 7 17 1 20 -8 4z"/>
<path d="M1392 3008 c-7 -7 -11 -32 -10 -57 l1 -46 4 45 c3 24 9 50 15 57 13
16 6 17 -10 1z"/>
<path d="M2281 3001 c-10 -6 -10 -10 -1 -16 7 -4 19 0 28 9 14 13 14 16 2 16
-8 0 -21 -4 -29 -9z"/>
<path d="M2315 2970 c3 -5 13 -10 21 -10 8 0 12 5 9 10 -3 6 -13 10 -21 10 -8
0 -12 -4 -9 -10z"/>
<path d="M1417 2598 c24 -41 39 -45 38 -11 0 27 -15 41 -43 42 -10 1 -9 -7 5
-31z"/>
<path d="M1736 2498 c7 -11 74 -10 74 1 0 6 -18 9 -39 8 -22 0 -37 -5 -35 -9z"/>
<path d="M3275 2791 c-33 -16 -77 -45 -97 -65 -36 -33 -38 -38 -37 -98 0 -56
2 -60 12 -38 15 31 36 49 56 45 9 -2 19 -4 24 -4 4 -1 16 -16 27 -33 20 -32
20 -32 20 -8 0 14 -16 50 -35 80 -39 63 -40 61 47 106 48 24 84 30 103 16 23
-16 45 -73 45 -114 1 -36 2 -40 11 -24 17 27 2 117 -23 144 -30 31 -80 29
-153 -7z"/>
<path d="M3035 2547 c-27 -11 -52 -22 -55 -25 -11 -9 36 -32 66 -32 29 0 32 4
39 36 3 20 5 37 3 39 -2 1 -25 -7 -53 -18z"/>
<path d="M1903 5025 c-42 -18 -146 -89 -194 -132 -32 -29 -41 -33 -58 -24 -31
17 -83 13 -118 -9 -18 -11 -33 -22 -33 -25 0 -2 15 4 33 15 17 11 36 20 40 20
12 0 -124 -150 -146 -162 -32 -17 -31 -1 3 44 21 28 23 33 5 13 -14 -16 -37
-40 -50 -52 l-24 -21 83 -7 83 -7 49 53 c128 139 153 164 211 206 35 24 87 58
115 74 56 30 56 38 1 14z"/>
<path d="M1151 4660 c-46 -16 -88 -33 -94 -39 -12 -12 150 40 180 58 30 17 3
11 -86 -19z"/>
<path d="M2375 4600 c8 -13 65 -43 71 -37 5 5 -32 30 -59 40 -11 4 -16 3 -12
-3z"/>
<path d="M2500 4531 c14 -11 43 -29 65 -41 50 -26 12 3 -49 38 -34 20 -37 20
-16 3z"/>
<path d="M2365 4401 c-10 -16 106 -74 139 -69 16 3 6 12 -45 41 -69 39 -84 43
-94 28z"/>
<path d="M2560 4306 c0 -2 31 -27 69 -54 62 -46 226 -191 243 -216 5 -7 11 -7
19 1 7 7 11 14 8 16 -2 2 -40 33 -84 69 -119 96 -255 195 -255 184z"/>
<path d="M3232 3765 c0 -16 2 -22 5 -12 2 9 2 23 0 30 -3 6 -5 -1 -5 -18z"/>
<path d="M265 3187 c-4 -10 -5 -42 -3 -73 4 -43 11 -61 33 -84 16 -16 37 -32
47 -36 11 -3 15 -10 11 -17 -10 -16 70 47 88 70 13 16 13 16 -10 0 -23 -15
-27 -15 -64 6 -47 26 -78 68 -87 116 -6 28 -9 32 -15 18z"/>
<path d="M1800 1719 c-19 -17 -26 -26 -15 -21 18 9 64 52 54 52 -2 0 -20 -14
-39 -31z"/>
</g>
</svg>
